<svg width="68" height="78" viewBox="0 0 68 78" fill="none" xmlns="http://www.w3.org/2000/svg">
<g clip-path="url(#clip0_1_56)">
<path d="M67.2966 38.5196C67.2966 44.773 67.2809 51.0245 67.3142 57.276C67.3142 58.0801 67.0344 58.546 66.3693 58.9195C57.0805 64.1213 47.797 69.3308 38.5186 74.5483C37.3272 75.2187 36.126 75.8753 34.9698 76.6046C34.109 77.1492 33.3539 77.1551 32.4559 76.642C26.0638 73.0011 19.6659 69.3833 13.2621 65.7883C9.26333 63.5335 5.27042 61.2668 1.2462 59.0571C0.318889 58.548 -0.0293411 57.8619 0.00196056 56.8652C0.0723893 54.6359 0.150643 52.4066 0.179989 50.1812C0.260851 44.0306 0.326063 37.8787 0.375624 31.7255C0.404969 27.6325 0.393231 23.5415 0.375624 19.4485C0.375624 18.7998 0.68864 18.4656 1.18555 18.1805C3.99096 16.5934 6.79507 15.005 9.59787 13.4152C16.7503 9.33996 23.934 5.32366 31.0375 1.16975C33.9486 -0.532701 33.9114 -0.229955 36.3197 1.14027C44.9537 6.06284 53.5884 10.9834 62.2238 15.9021C63.646 16.712 65.037 17.575 66.4553 18.3889C66.8701 18.6288 67.0051 18.9256 67.0031 19.3994C66.9816 22.8318 66.9855 26.2642 66.9836 29.6967C66.9836 32.6376 66.9836 35.5786 66.9836 38.5196H67.2966ZM11.3977 51.7814H56.0182L33.7119 11.2213C26.2249 24.8213 18.826 38.2738 11.3977 51.7814ZM10.6915 50.9518C18.065 37.5248 25.3211 24.3062 32.5791 11.0876L32.405 10.9382L1.64334 19.4426C4.65808 29.9424 7.64934 40.3616 10.6915 50.9518ZM56.746 50.9518C59.7783 40.3754 62.7657 29.9621 65.7765 19.4623L34.9346 10.9166L34.8211 11.0876C42.1066 24.3298 49.3901 37.574 56.746 50.9439V50.9518ZM12.417 52.9177L12.3035 53.1221L33.6786 75.8202L55.3941 52.9138L12.417 52.9177ZM65.9369 23.3567L65.7413 23.3115C65.3344 24.7387 64.9268 26.1653 64.5186 27.5912C62.2361 35.5255 59.9505 43.4585 57.6615 51.3902C57.5148 51.8915 57.5461 52.1569 58.0528 52.4321C60.2048 53.594 62.3177 54.8128 64.4501 56.0041C65.0096 56.3167 65.5828 56.6076 66.2773 56.9772C66.158 45.6538 66.0484 34.5052 65.9369 23.3567ZM65.9173 57.9779C62.8772 56.2931 60.0131 54.7165 57.1627 53.1123C56.7714 52.8902 56.5992 53.0927 56.3801 53.3345C50.7576 59.2976 45.1337 65.2608 39.5085 71.224C38.593 72.1951 37.7048 73.1899 36.8029 74.1728L36.9066 74.3045L65.9173 57.9779ZM1.63551 23.3017L1.47314 23.3194C1.36619 34.4816 1.25924 45.6557 1.1523 56.8416C1.25895 56.8248 1.36377 56.7978 1.46531 56.761C4.1553 55.2689 6.83745 53.7611 9.54113 52.2906C10.0185 52.0291 9.87958 51.7264 9.77785 51.3745C7.72368 44.2436 5.66951 37.112 3.61534 29.9798C2.96975 27.7505 2.29676 25.529 1.63551 23.3017ZM30.5406 74.2947L30.656 74.1315C30.5465 74.0037 30.4448 73.8701 30.3313 73.7482C26.3899 69.5333 22.4459 65.3204 18.4993 61.1095C16.1516 58.6187 13.7629 56.1653 11.4016 53.6863C10.9125 53.1713 10.4743 52.9767 9.76025 53.3954C7.80389 54.5454 5.79276 55.6011 3.80902 56.704C3.06952 57.1148 2.34958 57.5572 1.5553 58.0231L30.5406 74.2947ZM62.3861 17.347L62.4389 17.2133L34.2675 1.213C34.246 1.60618 34.2244 1.81653 34.2244 2.02884C34.2244 4.33286 34.2381 6.63687 34.2088 8.93892C34.2088 9.47954 34.3731 9.69775 34.8916 9.8393C43.3534 12.1617 51.8114 14.4952 60.2654 16.8398C60.9717 17.0325 61.6838 17.1779 62.3861 17.347ZM33.1132 1.22676L5.03957 17.1937L5.11978 17.3667C5.37606 17.3057 5.63626 17.2566 5.88862 17.1858C14.8031 14.7258 23.7175 12.2685 32.632 9.81374C33.0721 9.69185 33.2052 9.48544 33.2013 9.04508C33.1817 6.93569 33.2013 4.8263 33.1895 2.7169C33.1876 2.28048 33.1484 1.84209 33.1171 1.22283L33.1132 1.22676Z" fill="black"/>
<path d="M11.3977 51.7814C18.8318 38.2738 26.2249 24.8212 33.7119 11.2114L56.0143 51.7814H11.3977ZM42.7913 37.8236C42.7913 36.3688 42.5409 35.0379 41.7173 33.8682C40.4202 32.0262 37.4544 32.0518 36.3236 33.9901C35.052 36.1683 34.915 38.4998 35.901 40.8314C36.4312 42.0856 37.5483 42.581 38.8356 42.6832C40.1228 42.7855 41.2262 42.412 41.9559 41.2167C42.6152 40.1492 42.7639 38.9795 42.7913 37.8256V37.8236ZM27.563 40.8766L27.43 40.68C27.8132 40.169 28.2246 39.68 28.6625 39.2154C29.136 38.7613 29.7287 38.4291 30.208 37.9809C30.7949 37.4363 31.4386 36.8977 31.8279 36.2116C32.7161 34.6683 31.9727 32.673 30.435 32.1933C28.6175 31.6173 26.3169 33.072 26.1036 34.975C26.0743 35.2443 26.3286 35.5471 26.4499 35.8341C26.7336 35.669 27.0896 35.5648 27.2833 35.3269C27.5533 34.9947 27.6452 34.517 27.9113 34.1828C28.5901 33.3315 29.7542 33.1802 30.435 33.8014C31.1158 34.4226 31.0219 35.4724 30.1767 36.2568C29.5898 36.8013 28.8464 37.1886 28.2889 37.7607C27.5063 38.547 26.7238 39.3865 26.1525 40.3281C25.3993 41.5627 25.8356 42.2272 27.2637 42.2331C28.7251 42.2331 30.1865 42.2075 31.6479 42.1918C31.7692 42.1918 31.9238 42.2154 32.0059 42.1525C32.2524 41.9559 32.4715 41.7337 32.7004 41.5214C32.4852 41.2934 32.2837 40.8904 32.0529 40.8707C31.0121 40.7862 29.9654 40.8019 28.9227 40.7999C28.4688 40.8137 28.0169 40.855 27.563 40.8766Z" fill="white"/>
<path d="M10.6915 50.9517C7.64934 40.3615 4.65808 29.9424 1.64334 19.4426L32.405 10.9382L32.5791 11.0876C25.3211 24.3062 18.065 37.5248 10.6915 50.9517ZM15.2224 27.7347L15.0678 27.6954C15.0248 27.2432 14.9935 26.791 14.9348 26.3409C14.8311 25.5172 14.8057 24.6679 14.5787 23.8776C14.1483 22.3894 12.5383 21.9471 11.476 23.0677C10.8295 23.7907 10.3012 24.6121 9.91088 25.5014C9.74676 25.8476 9.68058 26.2324 9.71957 26.6138C9.75856 26.9952 9.90123 27.3585 10.132 27.6639C10.3119 27.9037 10.7795 27.9234 11.1101 28.0433C11.1766 27.7445 11.3723 27.3985 11.2842 27.1567C10.893 26.103 11.251 25.2911 11.9748 24.5637C12.2292 24.3062 12.5128 24.0742 12.7867 23.8285C13.5282 24.2708 13.4636 25.008 13.538 25.6666C13.6612 26.7852 13.7336 27.9077 13.9077 29.0086C13.9977 29.5826 14.1973 30.2608 14.8859 30.3395C15.596 30.422 15.7917 29.7104 16.0793 29.2189C16.6857 28.1888 17.2707 27.1449 17.8752 26.1148C18.0708 25.7786 18.3662 25.4877 18.5071 25.1318C18.6069 24.8782 18.5286 24.5519 18.5306 24.259C18.196 24.2983 17.7872 24.2315 17.5524 24.4025C17.21 24.6463 16.9655 25.0473 16.7229 25.411C16.2025 26.1875 15.7173 26.964 15.2224 27.7347Z" fill="white"/>
<path d="M56.746 50.9439C49.3901 37.5759 42.1066 24.3298 34.8211 11.0876L34.9346 10.9165L65.7765 19.4544C62.7657 29.9541 59.7783 40.3674 56.746 50.9439ZM53.6745 29.9227C53.2989 30.1979 52.9819 30.3414 52.8137 30.5852C52.6728 30.7818 52.5907 31.175 52.6944 31.3715C52.798 31.5681 53.25 31.7018 53.4084 31.6114C54.3357 31.0904 54.7153 31.5642 54.9735 32.3682C55.0107 32.4823 55.0791 32.6356 55.1691 32.669C55.4626 32.7811 55.7815 32.9226 56.071 32.8872C56.1825 32.8735 56.3508 32.3781 56.2921 32.154C56.1285 31.6411 55.9291 31.1406 55.6954 30.656C56.0123 30.4594 56.4114 30.3001 56.6384 30.0131C56.834 29.7733 56.8164 29.3722 56.8927 29.042C56.5875 28.9909 56.2608 28.8454 55.983 28.9122C55.6191 28.9948 55.2924 29.2425 54.907 29.443L54.0012 27.9588C54.4766 27.8428 54.8698 27.7445 55.263 27.6541C55.7384 27.542 56.2217 27.4575 56.6873 27.3218C57.1529 27.1862 57.5911 26.9286 57.4189 26.3389C57.2546 25.7766 56.791 25.812 56.3332 25.9261C55.3393 26.1738 54.3416 26.4077 53.3536 26.677C52.1955 26.9955 52.0175 27.5243 52.7022 28.5407C53.0132 28.9948 53.3399 29.443 53.6745 29.9227ZM51.857 21.4989C50.8612 21.8921 50.0631 22.2499 49.2414 22.529C49.0868 22.5801 48.8501 22.3324 48.631 22.2518C48.3278 22.1378 48.0148 22.0552 47.7057 21.955C47.6157 22.2557 47.3613 22.6391 47.4611 22.8435C47.9234 23.7588 48.4415 24.6445 49.0125 25.4955C49.1279 25.6705 49.5427 25.7629 49.7696 25.6921C49.9144 25.6548 50.0611 25.2537 50.0396 25.0355C49.9645 24.6335 49.8545 24.2388 49.7109 23.856C50.3233 23.5984 50.9356 23.3566 51.5323 23.0834C52.129 22.8101 52.7648 22.4936 53.3713 22.183C53.9112 21.9019 54.0403 21.3534 53.5904 21.0035C52.9316 20.5016 52.2298 20.0595 51.4932 19.6824C51.274 19.5723 50.8906 19.7925 50.5835 19.8593C50.6852 20.1817 50.7204 20.5513 50.9043 20.8128C51.0882 21.0743 51.4032 21.1922 51.857 21.4989Z" fill="white"/>
<path d="M12.417 52.9137H55.3843L33.6786 75.8202L12.3035 53.1221L12.417 52.9137ZM36.1299 62.6527C37.4192 61.1134 37.2176 59.5623 35.4961 58.8821C33.7236 58.1823 31.9257 58.4319 30.3039 59.405C29.267 60.0263 29.2396 61.4102 30.1278 62.2516C30.3724 62.4836 30.6482 62.6802 30.9104 62.8886C30.1278 64.4279 30.2139 65.23 31.3271 65.8787C31.9462 66.2542 32.6429 66.4817 33.3634 66.5434C34.084 66.6051 34.809 66.4994 35.4824 66.2345C36.4703 65.8669 36.9262 64.9528 36.6718 63.9226C36.5623 63.5137 36.3314 63.1206 36.1299 62.6527Z" fill="white"/>
<path d="M65.9369 23.3566C66.0484 34.5052 66.158 45.6537 66.2714 56.9732C65.5769 56.6037 65.0037 56.3127 64.4442 56.0001C62.3118 54.8088 60.195 53.59 58.0469 52.4281C57.5402 52.1529 57.5089 51.8875 57.6557 51.3862C59.9524 43.4558 62.2381 35.5228 64.5127 27.5872C64.9209 26.1626 65.3285 24.736 65.7354 23.3075L65.9369 23.3566ZM64.3112 46.1235C64.2114 46.8961 64.0901 47.592 64.0529 48.286C64.0412 48.4826 64.276 48.7008 64.3992 48.9092C64.5831 48.746 64.8746 48.6123 64.9313 48.4118C65.0898 47.8469 65.1959 47.2684 65.2483 46.6838C65.3872 45.2467 65.5965 43.7841 65.0135 42.408C64.8511 42.0247 64.3777 41.5941 63.9962 41.5371C63.6519 41.488 63.1315 41.8379 62.8752 42.1603C62.2746 42.9172 62.1553 43.8588 62.2296 44.8084C62.3294 46.1176 62.9515 46.5383 64.3112 46.1235Z" fill="white"/>
<path d="M65.9173 57.9778L36.8988 74.3045L36.7951 74.1728C37.697 73.1898 38.5851 72.1912 39.5007 71.2239C45.122 65.2595 50.7458 59.2963 56.3723 53.3344C56.5992 53.0926 56.7636 52.8901 57.1548 53.1123C60.0131 54.7164 62.8772 56.2931 65.9173 57.9778ZM53.7058 61.2687C52.3989 61.4279 50.7263 62.0177 49.7657 62.7942C49.1176 63.2888 48.689 64.0196 48.5723 64.8289C48.453 65.6723 48.8834 66.0792 49.7148 65.9554C51.1371 65.7411 52.1153 64.7267 52.3755 63.2248C52.4146 63.0085 52.4928 62.7215 52.6513 62.6193C53.1267 62.3126 54.0208 62.5131 54.412 62.9338C54.7094 63.2601 55.1261 63.5649 55.4509 63.1501C55.6152 62.9397 55.5389 62.2576 55.3315 62.0885C54.8698 61.715 54.2575 61.5302 53.7058 61.2687ZM58.0685 57.9641L56.8203 58.2452C56.2334 58.3808 55.6152 58.4555 55.0596 58.6777C54.7896 58.7838 54.6272 59.1633 54.4159 59.4188C54.7055 59.5034 55.0205 59.7058 55.2826 59.6508C56.4936 59.4031 57.6928 59.0885 58.8921 58.7838C59.076 58.7386 59.3538 58.6541 59.3929 58.5283C59.4927 58.196 59.6355 57.7183 59.4809 57.508C59.2657 57.219 58.7962 57.1148 58.4343 56.9398C58.3345 57.2229 58.2367 57.4883 58.0685 57.9641Z" fill="white"/>
<path d="M1.63551 23.3016C2.29676 25.529 2.96974 27.7504 3.61338 29.9856C5.67407 37.1165 7.72824 44.2481 9.77589 51.3803C9.87762 51.7322 10.0165 52.035 9.53917 52.2964C6.83549 53.7669 4.15333 55.2747 1.46335 56.7668C1.36181 56.8037 1.25699 56.8307 1.15033 56.8474C1.25728 45.6485 1.36488 34.4744 1.47313 23.3252L1.63551 23.3016ZM4.17877 40.2534C2.87388 39.9861 2.34762 40.1807 1.98961 40.9651C1.56899 41.889 1.98961 44.1695 2.73498 44.8477C2.86019 44.9617 3.15559 45.0777 3.22798 45.0167C3.30566 44.9499 3.36756 44.8666 3.40918 44.7727C3.4508 44.6789 3.4711 44.5769 3.46861 44.4742C3.37079 43.9473 3.18298 43.4401 3.05778 42.9172C2.94391 42.5458 2.87816 42.1613 2.86214 41.773C2.87975 41.144 3.15168 41.0162 3.64468 41.3936C4.06921 41.72 4.42722 42.1269 4.8498 42.4591C5.00239 42.5791 5.32128 42.699 5.42105 42.6243C5.51058 42.5525 5.58178 42.4603 5.62873 42.3553C5.67568 42.2504 5.69704 42.1357 5.69103 42.0207C5.29976 40.6446 4.90849 39.2528 4.43505 37.8924C4.36853 37.6958 3.94401 37.629 3.68577 37.4992C3.63294 37.7587 3.49013 38.0418 3.54491 38.2738C3.69555 38.9146 3.93618 39.53 4.17485 40.2534H4.17877ZM5.38192 46.2847H6.55574C6.52248 45.9486 6.57139 45.5751 6.44031 45.2821C6.23448 44.8426 5.96917 44.4338 5.6519 44.0672C5.52865 43.9198 5.24302 43.91 5.03174 43.8372C4.95149 44.0479 4.88612 44.2641 4.8361 44.484C4.79306 44.7278 4.87523 45.0148 4.77741 45.2251C4.33527 46.1747 3.81293 47.0888 3.39231 48.0462C3.22994 48.4138 3.07147 49.0154 3.2495 49.2414C3.48035 49.5343 4.04378 49.6543 4.47222 49.672C4.90066 49.6897 5.53061 49.6346 5.50126 49.0193C5.47192 48.404 4.88892 48.6595 4.50939 48.6261C4.48983 48.6261 4.47222 48.5966 4.41353 48.5475C4.43495 48.4453 4.46372 48.3447 4.49961 48.2467C4.80871 47.5409 5.13151 46.8332 5.37801 46.2847H5.38192Z" fill="white"/>
<path d="M30.5406 74.2946L1.5553 58.023C2.34958 57.5571 3.06952 57.1148 3.80902 56.7039C5.79276 55.6011 7.80389 54.5414 9.76024 53.3953C10.4743 52.9766 10.9125 53.1712 11.4016 53.6863C13.7629 56.1653 16.1516 58.6187 18.4993 61.1095C22.455 65.3112 26.399 69.5241 30.3313 73.7481C30.4448 73.87 30.5465 74.0037 30.656 74.1315L30.5406 74.2946ZM11.1727 58.1076C10.9478 58.1292 10.7032 58.141 10.4645 58.1803C8.91314 58.4378 8.4847 59.4758 9.45505 60.7359C10.3882 61.9548 11.6873 62.3539 13.1584 62.0963C14.3596 61.8879 14.8233 60.8814 14.2892 59.7727C13.6573 58.4732 12.4874 58.1724 11.1708 58.1076H11.1727ZM16.6603 63.7103C16.4275 63.6887 16.093 63.6572 15.7584 63.6317C15.2766 63.5742 14.792 63.544 14.3068 63.5413C14.1112 63.5413 13.7923 63.6946 13.7199 63.8578C13.6974 63.9692 13.7036 64.0845 13.7378 64.1929C13.772 64.3012 13.8332 64.399 13.9155 64.477C14.4905 64.8064 15.0903 65.0897 15.7095 65.3243C15.8328 65.3735 16.0558 65.1631 16.2338 65.0727C16.4803 64.9488 16.7386 64.7051 16.9694 64.7267C17.3744 64.768 17.7519 64.994 18.1608 65.0982C18.4062 65.1414 18.6551 65.1618 18.9042 65.1592C18.9042 64.8957 18.9786 64.5694 18.8612 64.3728C18.5888 63.9134 18.2602 63.49 17.883 63.1127C17.6306 62.863 17.2609 62.7313 16.944 62.5485L16.6603 63.7103Z" fill="white"/>
<path d="M62.3861 17.3469C61.6799 17.1779 60.9678 17.0324 60.2674 16.8397C51.812 14.5069 43.3554 12.1754 34.8974 9.84514C34.379 9.70359 34.2068 9.48538 34.2146 8.94476C34.244 6.64271 34.2264 4.3387 34.2303 2.03468C34.2303 1.82237 34.2518 1.60809 34.2733 1.21884L62.4448 17.2192L62.3861 17.3469ZM45.9136 10.7219L46.0623 10.8831C46.4536 10.7062 47.1461 10.5784 47.1833 10.3464C47.285 9.68983 46.6121 9.63872 46.1582 9.6053C45.2152 9.53846 44.4249 9.36349 43.969 8.36679C43.7421 7.86549 43.3117 7.97362 43.0632 8.48474C43.0045 8.60663 42.9537 8.73048 42.8832 8.89365L41.1695 8.48671C41.5979 8.13875 41.9638 7.94413 42.1672 7.63941C42.3179 7.41924 42.2533 7.04965 42.2866 6.7528C41.9892 6.78229 41.6234 6.71152 41.4082 6.86093C40.9572 7.19108 40.545 7.57162 40.1796 7.99524C39.9683 8.22721 39.6905 8.585 39.7413 8.81698C39.7922 9.04895 40.1717 9.34187 40.4593 9.4264C41.1442 9.60195 41.8377 9.74172 42.537 9.84514C43.3997 10.0044 44.2351 10.1243 44.8005 10.9794C45.1507 11.5043 45.6437 11.3431 45.9175 10.7219H45.9136Z" fill="white"/>
<path d="M33.1171 1.22278C33.1484 1.84203 33.1876 2.28042 33.1895 2.71685C33.1895 4.82624 33.1895 6.93563 33.2013 9.04503C33.2013 9.48538 33.0721 9.6918 32.632 9.81369C23.7149 12.2632 14.8005 14.7205 5.88862 17.1857C5.63625 17.2565 5.37606 17.3057 5.11977 17.3666L5.03956 17.1936L33.1171 1.22278ZM25.3445 8.48082C25.1646 8.56339 25.0589 8.62236 24.9533 8.66365C24.3957 8.87006 24.0181 9.22589 24.1023 9.86677C24.1864 10.5076 24.6892 10.7239 25.2624 10.7809C26.2916 10.8717 27.3222 10.6217 28.1969 10.0693C29.0655 9.55026 29.1868 9.18264 29.0088 8.22919C29.1868 7.80652 29.4607 7.26787 29.3003 6.95333C29.1399 6.63879 28.5412 6.29279 28.146 6.30459C27.4478 6.34209 26.7631 6.51359 26.129 6.80982C25.4893 7.09291 25.0922 7.64532 25.3445 8.48082ZM22.2692 8.28423C21.992 8.41263 21.7263 8.56456 21.4749 8.73835C20.53 9.5247 19.5811 10.3287 18.6832 11.176C18.4719 11.3726 18.4464 11.7776 18.3369 12.0882C18.6695 12.0548 19.0842 12.1354 19.3151 11.9663C20.0859 11.4198 20.7999 10.7868 21.5218 10.1774C21.9137 9.85107 22.2848 9.50046 22.633 9.12759C22.6853 9.0524 22.7197 8.96616 22.7337 8.8755C22.7476 8.78485 22.7406 8.69219 22.7133 8.60467C22.6722 8.46902 22.4413 8.39825 22.2692 8.28423Z" fill="white"/>
<path d="M42.7913 37.8256C42.7639 38.9795 42.6152 40.1492 41.9618 41.2187C41.2321 42.4139 40.1463 42.7914 38.8414 42.6852C37.5365 42.5791 36.4312 42.0955 35.9069 40.8334C34.9287 38.5018 35.0578 36.1703 36.3295 33.9921C37.4602 32.0537 40.4261 32.0262 41.7231 33.8702C42.5409 35.0399 42.7835 36.3708 42.7913 37.8256ZM41.5862 37.6919C41.3299 36.7856 41.1949 35.8223 40.7899 34.9849C40.0465 33.4318 38.0921 33.3886 37.2998 34.9121C36.8747 35.7161 36.6353 36.606 36.5994 37.5157C36.5635 38.4255 36.732 39.3316 37.0924 40.1669C37.47 41.1007 38.3328 41.3465 39.2601 41.3759C40.0817 41.4015 40.61 40.91 40.876 40.218C41.1793 39.4337 41.3397 38.5923 41.5862 37.6919Z" fill="black"/>
<path d="M27.5631 40.8766C28.0169 40.855 28.4688 40.8137 28.9208 40.8156C29.9655 40.8156 31.0121 40.8019 32.0509 40.8864C32.2818 40.9061 32.4833 41.3091 32.6985 41.5371C32.4696 41.7494 32.2505 41.9775 32.004 42.1682C31.9218 42.2311 31.7673 42.2055 31.646 42.2075C30.1846 42.2232 28.7232 42.2547 27.2618 42.2488C25.8336 42.2488 25.3974 41.5784 26.1506 40.3438C26.7257 39.4022 27.5083 38.5745 28.2869 37.7764C28.8445 37.2043 29.584 36.817 30.1748 36.2725C31.0258 35.4861 31.1021 34.4265 30.433 33.8171C29.7639 33.2077 28.5882 33.3473 27.9093 34.1985C27.6433 34.5327 27.5513 35.0104 27.2813 35.3426C27.0857 35.5805 26.7316 35.6847 26.4479 35.8498C26.3266 35.5628 26.0723 35.2601 26.1017 34.9907C26.3149 33.0878 28.6156 31.633 30.433 32.209C31.9707 32.6966 32.7141 34.6841 31.8259 36.2273C31.4347 36.9035 30.7871 37.4422 30.2061 37.9966C29.7268 38.4468 29.134 38.7829 28.6606 39.2311C28.2227 39.6957 27.8112 40.1847 27.4281 40.6957L27.5631 40.8766Z" fill="black"/>
<path d="M15.2224 27.7347C15.7173 26.9641 16.2006 26.1875 16.7151 25.4287C16.9577 25.065 17.2022 24.664 17.5446 24.4202C17.7852 24.2492 18.1941 24.316 18.5227 24.2767C18.5227 24.5696 18.599 24.8959 18.4993 25.1495C18.3584 25.5034 18.065 25.7944 17.8674 26.1325C17.2629 27.1626 16.6779 28.2065 16.0714 29.2366C15.7839 29.7281 15.5882 30.4397 14.8781 30.3572C14.1992 30.2785 13.9997 29.6003 13.8999 29.0263C13.7277 27.9175 13.6534 26.795 13.5301 25.6843C13.4558 25.0178 13.5301 24.2885 12.7789 23.8462C12.505 24.0919 12.2213 24.3239 11.967 24.5814C11.2432 25.3088 10.8871 26.1207 11.2764 27.1744C11.3645 27.4162 11.1688 27.7642 11.1023 28.061C10.7658 27.9411 10.2982 27.9214 10.1241 27.6816C9.8934 27.3762 9.75073 27.0129 9.71174 26.6315C9.67275 26.2501 9.73894 25.8653 9.90306 25.5191C10.2934 24.6298 10.8217 23.8084 11.4681 23.0854C12.5304 21.9648 14.1405 22.4071 14.5709 23.8953C14.7978 24.6817 14.8233 25.5349 14.927 26.3586C14.9857 26.8087 15.017 27.2609 15.06 27.7131L15.2224 27.7347Z" fill="black"/>
<path d="M53.6745 29.9227C53.34 29.443 53.0132 28.9948 52.6963 28.5348C52.0116 27.5184 52.1896 26.9896 53.3478 26.6711C54.3357 26.4018 55.3335 26.1679 56.3273 25.9202C56.7851 25.8061 57.2487 25.7708 57.4131 26.333C57.5852 26.9228 57.1529 27.1803 56.6814 27.3159C56.2099 27.4516 55.7345 27.5381 55.265 27.6521C54.8737 27.7425 54.4825 27.8487 54.0032 27.9568L54.9089 29.4411C55.3002 29.2445 55.6211 28.9928 55.9849 28.9103C56.2627 28.8454 56.5895 28.9889 56.8946 29.04C56.8183 29.3703 56.8301 29.7713 56.6403 30.0112C56.4134 30.2982 56.0143 30.4496 55.6974 30.654C55.9311 31.1386 56.1305 31.6392 56.294 32.152C56.3527 32.3761 56.1845 32.8715 56.073 32.8853C55.7834 32.9207 55.4646 32.7791 55.1711 32.6671C55.0791 32.6337 55.0107 32.4705 54.9755 32.3663C54.7172 31.5622 54.3377 31.0885 53.4104 31.6094C53.2519 31.6999 52.7883 31.5406 52.6963 31.3696C52.6044 31.1986 52.6748 30.7798 52.8156 30.5832C52.9819 30.3414 53.2989 30.1979 53.6745 29.9227Z" fill="black"/>
<path d="M51.857 21.4989C51.4032 21.1922 51.0745 21.0684 50.9043 20.8285C50.7341 20.5887 50.6852 20.1975 50.5835 19.8751C50.8906 19.8082 51.274 19.5881 51.4932 19.6982C52.2271 20.0756 52.9263 20.5177 53.5825 21.0192C54.0325 21.3633 53.9034 21.9117 53.3634 22.1988C52.757 22.5133 52.1446 22.816 51.5245 23.0991C50.9043 23.3822 50.3154 23.6142 49.7031 23.8717C49.8467 24.2545 49.9566 24.6492 50.0318 25.0513C50.0533 25.2695 49.9066 25.6705 49.7618 25.7079C49.5348 25.7688 49.1201 25.6764 49.0047 25.5113C48.4337 24.6603 47.9155 23.7746 47.4533 22.8593C47.3535 22.6627 47.6078 22.2695 47.6978 21.9707C48.0069 22.069 48.32 22.1535 48.6232 22.2676C48.8364 22.3462 49.079 22.5959 49.2336 22.5448C50.0611 22.2499 50.8613 21.8999 51.857 21.4989Z" fill="black"/>
<path d="M36.1299 62.6527C36.3256 63.1186 36.5623 63.5039 36.666 63.9226C36.9203 64.9527 36.4703 65.8669 35.4765 66.2345C34.8027 66.4985 34.0774 66.6032 33.3569 66.5405C32.6363 66.4777 31.9398 66.2493 31.3212 65.8728C30.208 65.224 30.122 64.422 30.9045 62.8827C30.6482 62.6743 30.3724 62.4777 30.122 62.2457C29.2338 61.4043 29.2612 60.0203 30.298 59.3991C31.9198 58.4162 33.7177 58.1764 35.4902 58.8762C37.2176 59.5623 37.4192 61.1134 36.1299 62.6527ZM33.6864 59.8297C32.9998 59.9142 32.5126 59.9456 32.0411 60.0439C31.5697 60.1422 30.9495 60.2405 30.9378 60.9011C30.926 61.5616 31.509 61.6717 32.0059 61.7936C32.3523 61.9074 32.7136 61.969 33.078 61.9764C33.7826 61.9413 34.4816 61.832 35.1635 61.6501C35.3885 61.5832 35.6291 61.133 35.631 60.8637C35.6053 60.7156 35.5449 60.5758 35.4547 60.4558C35.3646 60.3358 35.2473 60.2391 35.1126 60.1737C34.648 60.0179 34.1708 59.9028 33.6864 59.8297ZM33.8821 65.2201C34.2636 65.1533 34.5805 65.1651 34.825 65.0353C35.0696 64.9056 35.3454 64.6421 35.3552 64.4455C35.3486 64.2962 35.3103 64.1499 35.2428 64.0167C35.1753 63.8834 35.0802 63.7662 34.9639 63.673C34.2401 63.1461 32.7278 63.2641 32.0705 63.8342C31.5892 64.2509 31.6166 64.5851 32.2055 64.7915C32.7943 64.998 33.3715 65.0864 33.884 65.2201H33.8821Z" fill="black"/>
<path d="M64.3112 46.1236C62.9515 46.5384 62.3294 46.1236 62.2296 44.8123C62.1553 43.8628 62.2746 42.9211 62.8752 42.1643C63.1315 41.8419 63.6578 41.4919 63.9962 41.5411C64.3777 41.5981 64.8511 42.0286 65.0135 42.412C65.6004 43.7881 65.3872 45.2507 65.2483 46.6878C65.1952 47.2724 65.0885 47.8509 64.9294 48.4158C64.8727 48.6124 64.5812 48.75 64.3973 48.9131C64.274 48.7048 64.0392 48.4905 64.051 48.29C64.0901 47.5901 64.2114 46.8961 64.3112 46.1236ZM63.3643 45.1858C64.2701 44.543 64.4501 43.3359 63.738 42.6302C63.4113 43.4618 63.0806 44.2481 63.3643 45.1858Z" fill="black"/>
<path d="M53.7058 61.2687C54.2575 61.5302 54.8698 61.715 55.3315 62.0885C55.5389 62.2575 55.6152 62.9397 55.4509 63.1501C55.1261 63.5649 54.7094 63.2601 54.412 62.9338C54.0208 62.5131 53.1267 62.3126 52.6513 62.6193C52.4928 62.7215 52.4146 63.0124 52.3755 63.2248C52.1153 64.7267 51.1371 65.7411 49.7148 65.9554C48.8834 66.0792 48.453 65.6723 48.5723 64.8289C48.689 64.0196 49.1176 63.2888 49.7657 62.7942C50.7263 62.0177 52.4087 61.4279 53.7058 61.2687ZM49.5094 64.6736L49.7187 64.8702C50.6969 64.6205 51.2486 64.0013 51.2056 62.9043L49.5094 64.6736Z" fill="black"/>
<path d="M58.0685 57.964C58.2367 57.4883 58.3345 57.2131 58.4323 56.9398C58.7943 57.1207 59.2638 57.219 59.479 57.508C59.6335 57.7183 59.4907 58.196 59.391 58.5283C59.3518 58.6541 59.074 58.7386 58.8901 58.7838C57.6909 59.0885 56.4916 59.4031 55.2807 59.6508C55.0185 59.7058 54.7035 59.5033 54.414 59.4188C54.6253 59.1632 54.7877 58.7838 55.0576 58.6777C55.6152 58.4555 56.2314 58.3808 56.8184 58.2452L58.0685 57.964Z" fill="black"/>
<path d="M4.17486 40.2534C3.93618 39.528 3.69751 38.9146 3.54491 38.2875C3.49013 38.0556 3.63295 37.7725 3.68577 37.513C3.94401 37.6388 4.36853 37.7096 4.43505 37.9061C4.90066 39.2646 5.30758 40.6466 5.69103 42.0345C5.69704 42.1494 5.67569 42.2641 5.62873 42.3691C5.58178 42.4741 5.51058 42.5663 5.42105 42.638C5.32128 42.7127 5.00239 42.5928 4.8498 42.4729C4.43114 42.1407 4.06726 41.7337 3.64468 41.4074C3.15364 41.0299 2.88171 41.1577 2.86214 41.7868C2.87816 42.175 2.94391 42.5596 3.05778 42.9309C3.18299 43.4539 3.37079 43.9611 3.46861 44.4879C3.47111 44.5906 3.4508 44.6926 3.40918 44.7865C3.36756 44.8803 3.30566 44.9637 3.22798 45.0305C3.1556 45.0914 2.86019 44.9755 2.73498 44.8614C1.99352 44.1832 1.56117 41.9028 1.98961 40.9788C2.34371 40.1807 2.86997 39.986 4.17486 40.2534Z" fill="black"/>
<path d="M5.37801 46.2847C5.13151 46.8332 4.80871 47.5409 4.49374 48.2506C4.45786 48.3487 4.42909 48.4492 4.40766 48.5514C4.46635 48.6006 4.48396 48.6281 4.50352 48.63C4.88306 48.6576 5.46605 48.3961 5.49539 49.0232C5.52474 49.6503 4.89088 49.6936 4.46635 49.6759C4.04182 49.6582 3.47448 49.5383 3.24363 49.2454C3.0656 49.0193 3.22407 48.4177 3.38645 48.0501C3.80706 47.0927 4.32941 46.1786 4.77154 45.2291C4.86936 45.0187 4.78719 44.7317 4.83023 44.4879C4.88025 44.268 4.94563 44.0519 5.02587 43.8412C5.23716 43.9139 5.52278 43.9237 5.64603 44.0712C5.96674 44.4371 6.23537 44.846 6.44423 45.2861C6.5753 45.579 6.52639 45.9525 6.55965 46.2887L5.37801 46.2847Z" fill="black"/>
<path d="M11.1708 58.1076C12.4874 58.1724 13.6573 58.4732 14.2872 59.7786C14.8213 60.8873 14.3577 61.8939 13.1565 62.1022C11.6853 62.3598 10.3863 61.9607 9.45309 60.7419C8.47492 59.4758 8.91118 58.4378 10.4626 58.1862C10.7012 58.141 10.9458 58.1292 11.1708 58.1076ZM9.95588 59.4699C10.1608 60.0121 10.5444 60.4674 11.0427 60.76C11.5411 61.0525 12.1241 61.1648 12.6948 61.078C12.953 61.0348 13.3247 60.8814 13.3854 60.6848C13.446 60.4883 13.2875 60.1187 13.1213 59.8985C12.4991 59.0905 11.0534 58.8979 9.95588 59.4699Z" fill="black"/>
<path d="M16.6603 63.7103C16.7816 63.2365 16.8677 62.8964 16.9557 62.5544C17.2726 62.7372 17.6424 62.8689 17.8948 63.1186C18.2719 63.4959 18.6005 63.9193 18.8729 64.3787C18.9903 64.5753 18.9081 64.8957 18.916 65.1651C18.6663 65.1619 18.4174 65.1356 18.1726 65.0864C17.7695 64.9822 17.39 64.7562 16.9811 64.7149C16.7503 64.6933 16.4921 64.937 16.2455 65.0609C16.0675 65.1513 15.8445 65.3617 15.7212 65.3125C15.102 65.0779 14.5022 64.7946 13.9273 64.4652C13.8449 64.3872 13.7838 64.2894 13.7495 64.1811C13.7153 64.0727 13.7091 63.9574 13.7316 63.846C13.7962 63.6828 14.1053 63.5354 14.3185 63.5295C14.8037 63.5322 15.2884 63.5624 15.7702 63.6199C16.093 63.6513 16.4275 63.6828 16.6603 63.7103Z" fill="black"/>
<path d="M45.9175 10.7219C45.6437 11.3431 45.1507 11.5083 44.8005 10.9755C44.2351 10.1204 43.3997 9.99258 42.537 9.84121C41.8391 9.73896 41.1469 9.6005 40.4632 9.42641C40.1757 9.34188 39.8 9.06665 39.7453 8.81698C39.6905 8.56732 39.9722 8.22722 40.1835 7.99525C40.549 7.57163 40.9611 7.19108 41.4121 6.86093C41.6273 6.71152 41.999 6.7823 42.2905 6.75281C42.2572 7.05359 42.3218 7.41924 42.1711 7.63942C41.9755 7.94413 41.6018 8.13875 41.1734 8.48672L42.8872 8.89365C42.9576 8.73049 43.0085 8.60664 43.0671 8.48475C43.3156 7.96379 43.746 7.8655 43.9729 8.3668C44.4288 9.3635 45.2191 9.54633 46.1621 9.6053C46.616 9.63872 47.289 9.68984 47.1872 10.3464C47.15 10.5784 46.4595 10.7062 46.0662 10.8831L45.9175 10.7219Z" fill="black"/>
<path d="M25.3445 8.48083C25.0922 7.64533 25.4893 7.09488 26.1271 6.80983C26.7595 6.515 27.4421 6.34419 28.1382 6.30656C28.5295 6.29476 29.1164 6.6152 29.2925 6.9553C29.4685 7.2954 29.179 7.80849 29.001 8.23116C29.179 9.18461 29.0577 9.55223 28.1891 10.0712C27.3143 10.6237 26.2838 10.8736 25.2546 10.7829C24.6872 10.7259 24.1805 10.5293 24.0944 9.86874C24.0084 9.2082 24.3879 8.87204 24.9454 8.66562C25.0589 8.62237 25.1646 8.56339 25.3445 8.48083ZM27.7782 9.20624L27.6648 8.81306L25.5715 9.49915L25.6771 9.83139L27.7782 9.20624Z" fill="black"/>
<path d="M22.2692 8.28424C22.4413 8.39826 22.6604 8.46707 22.7191 8.60468C22.7464 8.6922 22.7534 8.78486 22.7395 8.87551C22.7256 8.96617 22.6912 9.05241 22.6389 9.1276C22.2907 9.50047 21.9195 9.85108 21.5277 10.1774C20.8058 10.7907 20.0917 11.4198 19.3209 11.9663C19.0842 12.1354 18.6695 12.0548 18.3428 12.0882C18.4523 11.7776 18.4777 11.3766 18.689 11.1761C19.587 10.3288 20.5358 9.53258 21.4807 8.73836C21.7303 8.56486 21.9941 8.41294 22.2692 8.28424Z" fill="black"/>
<path d="M41.5862 37.6919C41.3397 38.5922 41.1793 39.4336 40.876 40.218C40.61 40.91 40.0817 41.3976 39.2601 41.3759C38.3328 41.3484 37.47 41.1007 37.0924 40.1669C36.732 39.3316 36.5635 38.4255 36.5994 37.5157C36.6353 36.606 36.8747 35.7161 37.2998 34.9121C38.0824 33.3886 40.0387 33.4318 40.7899 34.9848C41.191 35.8223 41.3299 36.7777 41.5862 37.6919Z" fill="white"/>
<path d="M33.6864 59.8297C34.1706 59.9003 34.6477 60.0127 35.1126 60.1658C35.2473 60.2313 35.3646 60.328 35.4547 60.448C35.5449 60.568 35.6053 60.7078 35.631 60.8559C35.631 61.1331 35.3885 61.5832 35.1635 61.6422C34.4816 61.8241 33.7826 61.9335 33.078 61.9686C32.7136 61.9611 32.3523 61.8995 32.0059 61.7857C31.509 61.6638 30.926 61.5498 30.9378 60.8932C30.9495 60.2366 31.5462 60.1383 32.0411 60.0361C32.5361 59.9339 32.9998 59.9142 33.6864 59.8297Z" fill="white"/>
<path d="M33.884 65.2201C33.3715 65.0904 32.7709 64.9842 32.2035 64.7837C31.6362 64.5832 31.5873 64.2431 32.0685 63.8263C32.7259 63.2562 34.2381 63.1382 34.962 63.6651C35.0783 63.7584 35.1734 63.8756 35.2408 64.0088C35.3083 64.1421 35.3467 64.2883 35.3532 64.4377C35.3435 64.65 35.052 64.9134 34.8231 65.0275C34.5942 65.1415 34.2655 65.1533 33.884 65.2201Z" fill="white"/>
<path d="M63.3643 45.1858C63.0748 44.25 63.4054 43.4617 63.738 42.6302C64.4559 43.3359 64.276 44.543 63.3643 45.1858Z" fill="white"/>
<path d="M49.5094 64.6736L51.2056 62.9043C51.2486 64.0052 50.7047 64.6244 49.7187 64.8702L49.5094 64.6736Z" fill="white"/>
<path d="M9.95588 59.4699C11.0534 58.8978 12.4991 59.0905 13.131 59.9083C13.2973 60.1206 13.4636 60.4745 13.3951 60.6947C13.3267 60.9148 12.9628 61.0426 12.7046 61.0878C12.1312 61.1764 11.5449 61.0639 11.0444 60.7692C10.5438 60.4746 10.1594 60.0158 9.95588 59.4699Z" fill="white"/>
<path d="M27.7783 9.20623L25.6771 9.84514L25.5715 9.51291L27.6648 8.82681L27.7783 9.20623Z" fill="white"/>
</g>
<defs>
<clipPath id="clip0_1_56">
<rect width="67.3161" height="77.0194" fill="white"/>
</clipPath>
</defs>
</svg>
